<svg width="33" height="33" viewBox="0 0 33 33" fill="none" xmlns="http://www.w3.org/2000/svg">
<path fill-rule="evenodd" clip-rule="evenodd" d="M0.633789 16.541C0.633789 7.70402 7.79679 0.541016 16.6338 0.541016C25.4708 0.541016 32.6338 7.70402 32.6338 16.541C32.6338 25.377 25.4708 32.541 16.6338 32.541C7.79679 32.541 0.633789 25.377 0.633789 16.541ZM24.9278 17.346V23.483L21.3708 23.484V17.757C21.3708 16.318 20.8558 15.337 19.5678 15.337C18.5848 15.337 17.9998 15.999 17.7428 16.638C17.6488 16.866 17.6258 17.186 17.6258 17.505V23.483H14.0678C14.0678 23.483 14.1148 13.784 14.0678 12.779H17.6258V14.296C18.0968 13.567 18.9428 12.528 20.8318 12.528C23.1728 12.528 24.9278 14.058 24.9278 17.346ZM12.3318 9.46802C12.3318 10.495 11.5588 11.318 10.3188 11.318H10.2968C9.10179 11.318 8.32979 10.496 8.32979 9.46802C8.32979 8.41802 9.12479 7.61902 10.3418 7.61902C11.5588 7.61902 12.3088 8.41802 12.3318 9.46802ZM12.0978 12.779V23.483H8.54079V12.779H12.0978Z" fill="#7E7F86"/>
</svg>
