<svg width="33" height="29" viewBox="0 0 33 29" fill="none" xmlns="http://www.w3.org/2000/svg">
<path d="M10.5447 2.93082C10.5447 1.80365 9.61475 0.873741 8.48758 0.873741C7.36042 0.873741 6.43051 1.80365 6.43051 2.93082C6.43051 4.05798 7.36042 4.98789 8.48758 4.98789C9.61475 4.98789 10.5447 4.05798 10.5447 2.93082ZM10.2629 9.10204H8.88209C8.37487 9.49654 7.61403 10.0038 6.76866 10.4546C6.06418 10.821 5.30334 11.1873 4.62705 11.4409V12.6808L5.47242 12.7935C5.89511 12.8499 6.68412 13.1598 6.68412 14.8224V24.3187C6.68412 26.0659 6.34597 26.4604 5.64149 26.4604C4.42979 26.4604 4.37343 24.3469 2.62633 24.3469C1.78096 24.3469 0.991943 24.8823 0.991943 25.8968C0.991943 27.3057 2.65451 28.3202 5.07791 28.3202C7.95218 28.3202 10.2629 27.0521 10.2629 21.529V9.10204Z" fill="white"/>
<path d="M32.9919 16.5413C32.9919 13.8361 31.3576 12.2299 28.7087 11.1309V11.0464C30.2022 10.3983 32.4002 8.96114 32.4002 6.08687C32.4002 3.21261 30.2304 0.873741 25.4681 0.873741H13.6047V2.19816C14.8728 2.36723 16.3663 2.87446 16.3663 5.07243V18.9647C16.3663 20.7682 14.6192 21.3036 13.4638 21.5008V22.8534H26.5108C30.963 22.8534 32.9919 19.6128 32.9919 16.5413ZM28.4833 6.08687C28.4833 8.39756 26.7362 10.1728 24.9609 10.1728H20.1705V4.67792C20.1705 3.3535 20.7622 2.59267 23.3547 2.59267C26.7644 2.59267 28.4833 3.74801 28.4833 6.08687ZM28.9623 16.485C28.9623 19.6128 26.7362 21.1063 23.5238 21.1063C20.6777 21.1063 20.1705 20.43 20.1705 19.162V11.9481H24.6791C27.2434 11.9481 28.9623 13.9488 28.9623 16.485Z" fill="white"/>
</svg>
