<svg width="33" height="33" viewBox="0 0 33 33" fill="none" xmlns="http://www.w3.org/2000/svg">
<path fill-rule="evenodd" clip-rule="evenodd" d="M0.267578 16.541C0.267578 7.70445 7.43102 0.541016 16.2676 0.541016C25.1041 0.541016 32.2676 7.70445 32.2676 16.541C32.2676 25.3776 25.1041 32.541 16.2676 32.541C7.43102 32.541 0.267578 25.3776 0.267578 16.541ZM7.05158 22.3865H12.9766L12.9764 22.3865C13.7245 22.3862 14.4493 22.1259 15.0265 21.65C15.6038 21.1742 15.9977 20.5124 16.1408 19.7781C16.2838 19.0438 16.1671 18.2826 15.8107 17.6249C15.4542 16.9671 14.8802 16.4538 14.1869 16.1727C14.7939 15.8605 15.2784 15.3532 15.5624 14.7325C15.8465 14.1118 15.9136 13.4136 15.753 12.7501C15.5925 12.0866 15.2136 11.4964 14.6771 11.0742C14.1407 10.652 13.478 10.4224 12.7953 10.4223H7.05158V22.3865ZM24.0497 11.1206H18.2453V12.5456H24.0497V11.1206ZM19.3015 18.7996H25.3292C25.7598 15.7976 23.6285 13.7143 21.2028 13.7143C18.777 13.7143 16.9723 15.7147 16.9723 18.1823C16.9723 20.65 18.777 22.6504 21.2028 22.6504C23.0348 22.6504 24.7149 21.7891 25.2778 19.8725H22.9746L22.9706 19.8701C22.7523 20.2438 22.417 20.5352 22.0166 20.6992C21.6161 20.8633 21.1728 20.8909 20.7551 20.7778C20.3373 20.6647 19.9685 20.4172 19.7055 20.0736C19.4425 19.7299 19.3 19.3092 19.3 18.8764C19.3001 18.8507 19.3005 18.8251 19.3015 18.7996ZM9.33133 17.2834H12.2251C12.4339 17.2821 12.641 17.3221 12.8343 17.4011C13.0276 17.4801 13.2034 17.5966 13.3516 17.7438C13.4997 17.891 13.6173 18.0661 13.6975 18.2589C13.7777 18.4517 13.819 18.6585 13.819 18.8674C13.819 19.0762 13.7777 19.283 13.6975 19.4758C13.6173 19.6687 13.4997 19.8437 13.3516 19.9909C13.2034 20.1381 13.0276 20.2546 12.8343 20.3336C12.641 20.4126 12.4339 20.4526 12.2251 20.4513H9.33133V17.2834ZM13.1186 12.7955C13.399 13.076 13.5565 13.4563 13.5565 13.8528C13.5565 14.2494 13.3989 14.6297 13.1186 14.9101C12.8382 15.1905 12.4579 15.3481 12.0613 15.3481H9.33152V12.3575H12.0537L12.0551 12.3541L12.0613 12.3575C12.4579 12.3575 12.8382 12.5151 13.1186 12.7955ZM19.9111 16.04C20.2605 15.7299 20.7115 15.5586 21.1787 15.5586C21.6459 15.5586 22.0969 15.7299 22.4464 16.04C22.7958 16.3502 23.0195 16.7777 23.075 17.2416H19.2825C19.338 16.7777 19.5616 16.3502 19.9111 16.04Z" fill="white"/>
</svg>
