<svg width="32" height="32" viewBox="0 0 32 32" fill="none" xmlns="http://www.w3.org/2000/svg">
<g clip-path="url(#clip0_85_107)">
<path d="M11.9577 16.7423H9.06396V19.9102H11.9577C12.1666 19.9116 12.3736 19.8715 12.5669 19.7925C12.7603 19.7135 12.9361 19.5971 13.0842 19.4498C13.2323 19.3026 13.3499 19.1276 13.4301 18.9347C13.5104 18.7419 13.5517 18.5351 13.5517 18.3263C13.5517 18.1174 13.5104 17.9106 13.4301 17.7178C13.3499 17.525 13.2323 17.3499 13.0842 17.2027C12.9361 17.0555 12.7603 16.939 12.5669 16.86C12.3736 16.781 12.1666 16.741 11.9577 16.7423ZM13.2891 13.3117C13.2891 12.9152 13.1316 12.5349 12.8512 12.2544C12.5708 11.974 12.1905 11.8165 11.794 11.8164L11.7877 11.813L11.7863 11.8164H9.06415V14.8071H11.794C12.1905 14.807 12.5708 14.6494 12.8512 14.369C13.1316 14.0886 13.2891 13.7083 13.2891 13.3117ZM20.9113 15.0175C20.4441 15.0175 19.9931 15.1888 19.6437 15.499C19.2943 15.8091 19.0706 16.2366 19.0152 16.7005H22.8076C22.7521 16.2366 22.5285 15.8091 22.179 15.4989C21.8296 15.1888 21.3786 15.0175 20.9113 15.0175Z" fill="#7E7F86"/>
<path d="M16 0C7.16344 0 0 7.16344 0 16C0 24.8366 7.16344 32 16 32C24.8366 32 32 24.8366 32 16C32 7.16344 24.8366 0 16 0ZM12.709 21.8455H6.784V9.88125H12.5278C13.2104 9.8814 13.8731 10.111 14.4096 10.5332C14.946 10.9554 15.3249 11.5456 15.4855 12.2091C15.646 12.8726 15.5789 13.5708 15.2948 14.1915C15.0108 14.8122 14.5263 15.3195 13.9193 15.6317C14.6126 15.9127 15.1867 16.4261 15.5431 17.0838C15.8996 17.7416 16.0162 18.5028 15.8732 19.2371C15.7301 19.9714 15.3363 20.6332 14.759 21.109C14.1817 21.5848 13.4569 21.8452 12.7088 21.8454L12.709 21.8455ZM17.9778 10.5796H23.7821V12.0046H17.9778V10.5796ZM25.0616 18.2586H19.0339C19.033 18.2841 19.0325 18.3097 19.0324 18.3354C19.0324 18.7681 19.1749 19.1889 19.4379 19.5325C19.7009 19.8762 20.0698 20.1237 20.4875 20.2368C20.9052 20.3499 21.3486 20.3223 21.749 20.1582C22.1495 19.9942 22.4848 19.7028 22.7031 19.3291L22.7071 19.3314H25.0102C24.4473 21.2481 22.7673 22.1094 20.9352 22.1094C18.5094 22.1094 16.7048 20.1089 16.7048 17.6413C16.7048 15.1737 18.5094 13.1733 20.9352 13.1733C23.3609 13.1733 25.4922 15.2566 25.0616 18.2586Z" fill="#7E7F86"/>
</g>
<defs>
<clipPath id="clip0_85_107">
<rect width="32" height="32" fill="white"/>
</clipPath>
</defs>
</svg>
