<svg width="33" height="33" viewBox="0 0 33 33" fill="none" xmlns="http://www.w3.org/2000/svg">
<path fill-rule="evenodd" clip-rule="evenodd" d="M0.901367 16.541C0.901367 7.7041 8.06439 0.541016 16.9014 0.541016C25.7383 0.541016 32.9014 7.7041 32.9014 16.541C32.9014 25.377 25.7383 32.541 16.9014 32.541C8.06439 32.541 0.901367 25.377 0.901367 16.541ZM25.1954 17.3459V23.4829L21.6384 23.4839V17.7568C21.6384 16.3179 21.1234 15.3369 19.8354 15.3369C18.8524 15.3369 18.2674 15.9988 18.0104 16.6379C17.9164 16.866 17.8934 17.1858 17.8934 17.5049V23.4829H14.3354C14.3354 23.4829 14.3824 13.7839 14.3354 12.7788H17.8934V14.2959C18.3644 13.5669 19.2104 12.5278 21.0994 12.5278C23.4404 12.5278 25.1954 14.0579 25.1954 17.3459ZM12.5994 9.46802C12.5994 10.4949 11.8264 11.3179 10.5864 11.3179H10.5644C9.36938 11.3179 8.59741 10.4958 8.59741 9.46802C8.59741 8.41797 9.3924 7.6189 10.6094 7.6189C11.8264 7.6189 12.5764 8.41797 12.5994 9.46802ZM12.3654 12.7788V23.4829H8.80841V12.7788H12.3654Z" fill="white"/>
</svg>
